<?xml version="1.0" encoding="utf-8"?>
<!-- Generator: Adobe Illustrator 20.1.0, SVG Export Plug-In . SVG Version: 6.00 Build 0)  -->
<svg version="1.1" id="Layer_1" xmlns="http://www.w3.org/2000/svg" xmlns:xlink="http://www.w3.org/1999/xlink" x="0px" y="0px"
	 viewBox="0 0 15 40" style="enable-background:new 0 0 15 40;" xml:space="preserve">
<style type="text/css">
	.st0{fill:#FFFFFF;}
</style>
<path class="st0" d="M15,19.8c0-0.3-0.2-0.5-0.4-0.7c0,0,0,0,0,0L1.7-0.9C1.4-1.4,0.8-1.5,0.4-1.2C0.2-1,0.1-0.8,0-0.5
	s0,0.6,0.2,0.8L12.9,20L0.2,39.8C0,40,0,40.3,0,40.6c0,0.3,0.2,0.5,0.4,0.7c0.2,0.1,0.3,0.2,0.5,0.2c0.3,0,0.6-0.2,0.8-0.4
	l12.9-20.1c0,0,0,0,0,0c0.2-0.2,0.3-0.4,0.4-0.7c0-0.1,0-0.2,0-0.2C15,20,15,19.9,15,19.8z"/>
</svg>
