<?xml version="1.0" encoding="UTF-8"?>
<svg width="40px" height="40px" viewBox="0 0 40 40" version="1.1" xmlns="http://www.w3.org/2000/svg" xmlns:xlink="http://www.w3.org/1999/xlink">
    <!-- Generator: Sketch 45.2 (43514) - http://www.bohemiancoding.com/sketch -->
    <title>Group 4</title>
    <desc>Created with Sketch.</desc>
    <defs></defs>
    <g id="Page-6" stroke="none" stroke-width="1" fill="none" fill-rule="evenodd">
        <g id="Data_Explorer_Widget_Start-2" transform="translate(-338.000000, -835.000000)">
            <g id="Group" transform="translate(14.000000, 825.000000)">
                <g id="Group-4" transform="translate(324.000000, 10.000000)">
                    <circle id="Oval" fill="#CCD5DC" cx="20" cy="20" r="20"></circle>
                    <path d="M19.6924996,24.8140895 L16.907913,22.0310435 C16.7427826,21.8674783 16.7427826,21.5998261 16.907913,21.4362609 C17.0683478,21.2726957 17.336,21.2695652 17.5026957,21.4362609 L19.6086957,23.5422609 L19.6086957,10.4218261 C19.6086957,10.1893913 19.798087,10 20.0289565,10 C20.2629565,10 20.4507826,10.1893913 20.4507826,10.4218261 L20.4507826,23.5469565 L22.5614783,21.4362609 C22.7266087,21.2711304 22.9926957,21.2711304 23.1578261,21.4362609 C23.3213913,21.5998261 23.3213913,21.8674783 23.1578261,22.0310435 L20.3318261,24.8586087 C20.3009346,24.8891974 20.2657066,24.9146291 20.2276842,24.9343145 C20.1685611,24.9659019 20.1009438,24.9838261 20.0289565,24.9838261 C19.8918481,24.9838261 19.7693688,24.9170294 19.6924996,24.8140895 Z M25.6903478,27.8082609 L14.3746087,27.8082609 C12.5816522,27.8082609 11.1252174,26.3518261 11.1252174,24.5604348 C11.1252174,24.3295652 11.3146087,24.1401739 11.5454783,24.1401739 C11.7794783,24.1401739 11.9673043,24.3295652 11.9673043,24.5604348 C11.9673043,25.8885217 13.0496522,26.9661739 14.3746087,26.9661739 L25.6903478,26.9661739 C27.0153043,26.9661739 28.0945217,25.8885217 28.0945217,24.5604348 C28.0945217,24.3295652 28.2854783,24.1401739 28.5147826,24.1401739 C28.7487826,24.1401739 28.9366087,24.3295652 28.9366087,24.5604348 C28.9373913,26.3518261 27.4786087,27.8082609 25.6903478,27.8082609 Z" id="Download-2" stroke="#112233" fill="#112233"></path>
                </g>
            </g>
        </g>
    </g>
</svg>