<?xml version="1.0" encoding="utf-8"?>
<!-- Generator: Adobe Illustrator 20.1.0, SVG Export Plug-In . SVG Version: 6.00 Build 0)  -->
<svg version="1.1" id="Layer_1" xmlns="http://www.w3.org/2000/svg" xmlns:xlink="http://www.w3.org/1999/xlink" x="0px" y="0px"
	 viewBox="0 0 86.2 86.2" style="enable-background:new 0 0 86.2 86.2;" xml:space="preserve">
<style type="text/css">
	.st0{fill:#FFFFFF;}
</style>
<path class="st0" d="M25.4,0l-0.3,0c-5.6,0.3-9.9,4.9-9.9,10.7c0,5.7,4.5,10.4,10.4,10.7l24.9,0.3L4.4,67.7c-2,2-3.1,4.7-3.1,7.5
	c0,2.8,1.1,5.5,3.2,7.5c2,2,4.7,3.1,7.6,3.1c2.8,0,5.3-1.1,7.4-3.2l45.9-46.1l0.3,24.6l0,0.1c0.3,6,4.6,10.2,10.2,10.2
	C81.5,71.5,86,67,86,61.1V0L25.4,0z"/>
</svg>
