<?xml version="1.0" encoding="utf-8"?>
<!-- Generator: Adobe Illustrator 20.1.0, SVG Export Plug-In . SVG Version: 6.00 Build 0)  -->
<svg version="1.1" id="Ebene_1" xmlns="http://www.w3.org/2000/svg" xmlns:xlink="http://www.w3.org/1999/xlink" x="0px" y="0px"
	 viewBox="0 0 1073.7 281.4" style="enable-background:new 0 0 1073.7 281.4;" xml:space="preserve">
<style type="text/css">
	.st0{fill:#1D1D1B;}
	.st1{fill:#A3A3A3;}
</style>
<title>TaWo_Logo</title>
<path class="st0" d="M32.7,52.6H2.9V28.3h85.5v24.3H58.6v155.9H32.7V52.6z"/>
<path class="st0" d="M131.9,195.3h-0.5c-2.8,4.1-6.3,7.8-10.2,10.9c-3.5,2.5-8.3,3.8-14.6,3.8c-3.2,0-6.3-0.5-9.4-1.4
	c-3.3-1-6.4-2.7-9-5.1c-3.1-2.9-5.4-6.4-6.8-10.4c-1.8-4.5-2.7-10.2-2.7-17.3c-0.1-6.4,0.5-12.8,1.8-19.1c1-5,3.2-9.7,6.5-13.7
	c3.4-3.8,7.7-6.6,12.5-8.1c5.2-1.8,11.9-2.7,20-2.7c1.9,0,3.7,0.1,5.6,0.2c1.9,0.2,4.1,0.3,6.8,0.5v-13.4c0.1-3.8-0.8-7.6-2.8-10.9
	c-1.9-2.9-5.2-4.3-10.1-4.3c-3.4,0-6.6,1.2-9.2,3.3c-2.9,2.4-4.9,5.9-5.4,9.6H79.3c0.8-11.6,4.7-20.9,11.6-27.8
	c3.5-3.5,7.6-6.2,12.1-8c5.1-2,10.5-3,15.9-2.9c5.2,0,10.3,0.8,15.2,2.5c4.6,1.6,8.8,4.2,12.3,7.6c3.6,3.6,6.4,7.9,8.2,12.7
	c2.1,5.7,3.1,11.7,3,17.7v89.3h-25.7V195.3z M131.9,153.3c-2.3-0.5-4.7-0.7-7.1-0.8c-5.1-0.1-10,1.2-14.3,3.9
	c-4,2.6-5.9,7.4-5.9,14.3c0,4.9,1.2,8.9,3.5,11.9c2.4,3,6,4.7,9.9,4.6c4.4,0,7.8-1.4,10.2-4.3c2.4-2.9,3.7-6.9,3.7-12.1L131.9,153.3
	z"/>
<path class="st0" d="M202.5,223.4c0.2,3.2,1.5,6.2,3.7,8.6c2.3,2.7,5.6,4,10,4c4.2,0,7.2-1.3,9.1-3.9c2-3,2.9-6.5,2.8-10v-25.3h-0.5
	c-2.6,4-6.1,7.3-10.2,9.7c-4.2,2.3-9,3.5-13.8,3.4c-10.6,0-18.1-4-22.5-12c-1.7-3.3-2.8-6.9-3.3-10.6c-0.8-5.6-1.1-11.3-1-17v-48.8
	c-0.1-6.8,0.2-13.7,0.8-20.5c0.3-3.7,1.4-7.4,3.3-10.6c2.2-3.4,5.1-6.2,8.5-8.3c3.5-2.2,8.3-3.3,14.6-3.3c2.8-0.1,5.5,0.3,8.2,1
	c2.2,0.6,4.3,1.6,6.2,2.8c1.9,1.2,3.6,2.6,5.1,4.2c1.5,1.6,3.1,3.3,4.8,5.2V80.2h25.8v144c0,4.5-0.7,9-2.1,13.3
	c-1.5,4.5-3.8,8.6-7,12.1c-3.4,3.8-7.5,6.8-12.1,8.9c-5.5,2.4-11.4,3.6-17.4,3.4c-4.1,0-8.2-0.7-12.1-1.9c-4.3-1.3-8.3-3.5-11.8-6.3
	c-3.9-3.3-7-7.3-9.3-11.8c-2.6-4.9-4.3-11.1-5.2-18.5L202.5,223.4z M202.5,169c-0.1,3.7,0.8,7.4,2.7,10.6c1.8,3,5.1,4.6,10,4.6
	c3.5,0.1,6.9-1.3,9.2-3.9c2.5-2.7,3.8-6.3,3.7-10v-49.8c0-4.7-1.2-8.6-3.5-11.5c-2.2-2.9-5.7-4.5-9.4-4.4c-4.4,0-7.6,1.6-9.6,4.8
	c-2,3.2-3,7.4-3,12.6L202.5,169z"/>
<path class="st0" d="M298.7,154.1v17.5c0,4,1.1,7.2,3.4,9.4c2.3,2.2,5.4,3.3,9.2,3.3c4.9,0,8.1-1.4,9.7-4.3c1.5-2.6,2.5-5.6,2.9-8.6
	h25.8c0,5.2-0.9,10.3-2.7,15.2c-1.7,4.6-4.3,8.7-7.7,12.1c-3.4,3.6-7.6,6.4-12.1,8.4c-5.1,2.1-10.5,3.1-15.9,3
	c-7.9,0-14.8-1.7-20.5-5.1c-9.3-5.2-15.6-14.5-17-25.1c-0.7-4.8-1-9.6-1-14.4v-42.2c0-4.8,0.3-9.6,1-14.4c1.4-10.6,7.7-19.8,17-25.1
	c5.7-3.4,12.6-5.1,20.5-5.1c5.5-0.1,11,0.9,16.1,3c4.6,1.9,8.8,4.8,12.1,8.5c3.3,3.7,5.9,8.1,7.6,12.8c1.8,5,2.7,10.3,2.7,15.7v35.4
	L298.7,154.1z M298.7,133.9H324v-14.7c0-4.9-1.1-8.6-3.4-11c-5.2-4.9-13.3-4.9-18.5,0c-2.3,2.4-3.4,6.1-3.4,11L298.7,133.9z"/>
<path class="st0" d="M415.6,116.1c-0.2-4.4-1.6-7.7-4.2-9.9c-2.5-2.2-5.7-3.3-9-3.3c-4,0-7.2,1.3-9.4,3.9c-2.2,2.5-3.3,5.7-3.3,9
	c0,2.4,0.6,4.8,1.8,7c1.2,2.3,4.2,4.3,9.1,6.2l15.2,6.1c9.6,3.7,16.2,8.8,19.9,15.2c3.6,6.4,5.5,13.6,5.4,21
	c0,5.2-0.9,10.3-2.9,15.1c-1.9,4.5-4.6,8.7-8,12.3c-3.4,3.6-7.6,6.4-12.1,8.4c-4.9,2-10.1,3.1-15.4,3c-4.9,0-9.8-0.8-14.4-2.5
	c-4.4-1.6-8.5-4.1-12-7.3c-3.6-3.4-6.5-7.5-8.5-12c-2.3-5.3-3.5-11-3.5-16.8h24.3c0.5,3.5,1.7,6.9,3.7,9.9c1.9,3,5.4,4.6,10.2,4.6
	c3.7,0,7.2-1.3,10-3.7c2.9-2.4,4.4-5.9,4.4-10.2c0.1-3.3-0.9-6.5-2.8-9.1c-1.9-2.5-5.2-4.7-10.1-6.6l-12.4-4.6
	c-8.1-3-14.5-7.5-19.1-13.5s-7-13.3-7-21.9c-0.1-5.2,1-10.3,3-15.1c1.9-4.5,4.7-8.5,8.2-11.9c3.5-3.3,7.6-5.9,12-7.7
	c4.7-1.9,9.7-2.8,14.7-2.8c5-0.1,10,0.9,14.7,2.9c8.8,3.7,15.7,10.8,19.1,19.7c1.9,4.7,2.8,9.7,2.8,14.8H415.6z"/>
<path class="st0" d="M561.3,208.5H537L517.3,91.6h-0.5l-19.5,116.9H473L446.2,28.3h27.3l12.9,114.4h0.5l20.2-114.4h19.7l21,117.2
	h0.5l12.4-117.2h27.3L561.3,208.5z"/>
<path class="st0" d="M590.4,123.2c0-4.8,0.3-9.6,1-14.4c1.4-10.6,7.7-19.8,17-25.1c5.7-3.4,12.6-5.1,20.5-5.1s14.8,1.7,20.5,5.1
	c5.5,3.2,10.1,7.8,13.2,13.4c1.9,3.6,3.2,7.6,3.8,11.6c0.7,4.8,1,9.6,1,14.4v42.3c0,4.8-0.3,9.6-1,14.4c-0.6,4.1-1.9,8-3.8,11.6
	c-3.1,5.6-7.7,10.2-13.2,13.4c-5.7,3.4-12.6,5.1-20.5,5.1c-7.9,0-14.8-1.7-20.5-5.1c-9.3-5.2-15.6-14.5-17-25.1
	c-0.7-4.8-1-9.6-1-14.4L590.4,123.2z M616.2,169.5c0,4.9,1.1,8.6,3.4,11c5.2,4.9,13.3,4.9,18.5,0c2.3-2.4,3.4-6.1,3.4-11v-50.4
	c0-4.9-1.1-8.6-3.4-11c-5.2-4.9-13.3-4.9-18.5,0c-2.3,2.4-3.4,6.1-3.4,11V169.5z"/>
<path class="st0" d="M708.6,171.6c0,4,1.1,7.2,3.4,9.4s5.4,3.3,9.2,3.3c4.9,0,8.1-1.4,9.7-4.3c1.5-2.6,2.5-5.6,2.9-8.6h25.8
	c0,5.2-0.9,10.3-2.7,15.2c-1.7,4.6-4.3,8.7-7.7,12.1c-3.4,3.6-7.6,6.4-12.2,8.4c-5.1,2.1-10.5,3.1-15.9,3c-7.9,0-14.8-1.7-20.5-5.1
	c-9.3-5.2-15.6-14.5-17-25.1c-0.7-4.8-1-9.6-1-14.4v-42.2c0-4.8,0.3-9.6,1-14.4c1.4-10.6,7.7-19.8,17-25.1
	c5.7-3.4,12.6-5.1,20.5-5.1c5.5-0.1,11,0.9,16.1,3c4.6,1.9,8.8,4.8,12.2,8.5c3.4,3.8,6,8.2,7.6,13c1.8,5.3,2.7,10.9,2.7,16.4h-25.8
	c0-5.2-1.1-9.1-3.4-11.5c-5.2-4.9-13.3-4.9-18.5,0c-2.3,2.4-3.4,6.1-3.4,11L708.6,171.6z"/>
<path class="st0" d="M774.9,28.3h25.8v64.3h0.5c2.6-3.9,5.9-7.3,9.7-10c3.8-2.6,8.6-3.9,14.5-3.9c3.3,0,6.5,0.6,9.6,1.7
	c3.2,1.1,6.2,3,8.6,5.4c2.7,2.8,4.8,6.1,6.1,9.7c1.6,4.7,2.4,9.6,2.3,14.5v98.4h-25.8v-88.8c0-4.7-1.1-8.4-3.3-11.1
	c-2.2-2.7-5.3-4-9.4-4c-4.9,0-8.3,1.5-10.1,4.6c-1.9,3-2.8,7.4-2.8,13.1v86.3h-25.8V28.3z"/>
<path class="st0" d="M896.8,154.1v17.5c0,4,1.1,7.2,3.4,9.4c2.3,2.2,5.4,3.3,9.2,3.3c4.9,0,8.1-1.4,9.7-4.3c1.5-2.6,2.5-5.6,2.9-8.6
	H948c0,5.2-0.9,10.3-2.7,15.2c-1.7,4.6-4.3,8.7-7.7,12.1c-3.4,3.6-7.6,6.4-12.2,8.4c-5.1,2.1-10.5,3.1-15.9,3
	c-7.9,0-14.8-1.7-20.5-5.1c-9.3-5.2-15.6-14.5-17-25.1c-0.7-4.8-1-9.6-1-14.4v-42.2c0-4.8,0.3-9.6,1-14.4c1.4-10.6,7.7-19.8,17-25.1
	c5.7-3.4,12.6-5.1,20.5-5.1c5.5-0.1,11,0.9,16.1,3c4.6,1.9,8.8,4.8,12.2,8.5c3.3,3.7,5.9,8.1,7.6,12.8c1.8,5,2.7,10.4,2.7,15.7v35.4
	H896.8z M896.8,133.9h25.3v-14.7c0-4.9-1.1-8.6-3.4-11c-5.2-4.9-13.3-4.9-18.5,0c-2.3,2.4-3.4,6.1-3.4,11L896.8,133.9z"/>
<polygon class="st1" points="947.9,28.3 1073.7,28.3 1073.7,154.1 "/>
</svg>
