<?xml version="1.0" encoding="UTF-8"?>
<!-- Generator: Adobe Illustrator 18.1.0, SVG Export Plug-In . SVG Version: 6.00 Build 0)  -->
<svg version="1.1" id="Layer_1" xmlns="http://www.w3.org/2000/svg" xmlns:xlink="http://www.w3.org/1999/xlink" x="0px" y="0px" viewBox="0 0 723.3 282.1" enable-background="new 0 0 723.3 282.1" xml:space="preserve">
<path d="M653.2,128.5h11v-11.1h-11V128.5z M321.1,101.8c0-10.7,7.5-18.1,17.1-18.1c4.2,0,8.2,0.7,11.1,2.1l3.4-8.7  c-4.6-2.1-9.4-2.9-14.7-2.9c-15,0-28,11-28,27.6c0,17.1,13.3,27.6,28.6,27.6c5.2,0,10.2-0.8,14.5-3l-3.4-8.8  c-3.1,1.6-6.7,2.3-10.9,2.3C329.8,119.9,321.1,113.6,321.1,101.8 M404,101.8c0,10.7-7.8,18.1-17.4,18.1c-9.7,0-17.4-7.4-17.4-18.1  c0-10.7,7.8-18.1,17.4-18.1C396.2,83.7,404,91.1,404,101.8 M415.1,101.8c0-16.1-12.6-27.6-28.5-27.6c-16,0-28.5,11.4-28.5,27.6  s12.6,27.6,28.5,27.6C402.6,129.4,415.1,118,415.1,101.8 M439.3,103.8h-5.6V84.3h7.2c6,0,10.1,3.4,10.1,9.7  C451,100.5,446.9,103.8,439.3,103.8 M463.2,128.5l-16.9-16.6c9.6-2.1,15.8-8.8,15.8-18c0-10.4-7.9-18.7-21-18.7h-18.3v53.3h11v-16.1  l15.6,16.1H463.2z M487.4,103.8h-5.6V84.3h7.2c6,0,10.1,3.4,10.1,9.7C499.1,100.5,495,103.8,487.4,103.8 M511.4,128.5l-16.9-16.6  c9.6-2.1,15.8-8.8,15.8-18c0-10.4-7.9-18.7-21-18.7h-18.3v53.3h11v-16.1l15.6,16.1H511.4z M519,128.5h33.4v-9.3h-22.5v-11.1h18.3  v-9.3h-18.3V84.5h21.8v-9.3H519V128.5z M568.8,101.8c0-10.7,7.5-18.1,17.1-18.1c4.2,0,8.2,0.7,11.1,2.1l3.4-8.7  c-4.6-2.1-9.4-2.9-14.7-2.9c-15,0-28,11-28,27.6c0,17.1,13.3,27.6,28.6,27.6c5.2,0,10.2-0.8,14.5-3l-3.3-8.8  c-3.1,1.6-6.7,2.3-10.9,2.3C577.6,119.9,568.8,113.6,568.8,101.8 M631,84.5h14.2v-9.3h-39.4v9.3H620v44h11V84.5z M664.2,75.2h-11  v34.2h11V75.2z M723.3,75.2h-11.4l-14.5,37.8l-14.5-37.8h-11.4l21.5,53.3h8.8L723.3,75.2z"/>
<polygon fill="#FFFFFF" stroke="#000000" stroke-width="22.444" points="255.4,171.1 255.4,11 11.4,11 11.4,171.1 81.9,171.1   188.8,258.3 188.8,171.1 "/>
<path d="M122.3,155.7h24.5v-24.9h-24.5V155.7z M146.8,36.4h-24.5v76.6h24.5V36.4z"/>
</svg>