<?xml version="1.0" encoding="utf-8"?>
<!-- Generator: Adobe Illustrator 20.1.0, SVG Export Plug-In . SVG Version: 6.00 Build 0)  -->
<svg version="1.1" id="Layer_1" xmlns="http://www.w3.org/2000/svg" xmlns:xlink="http://www.w3.org/1999/xlink" x="0px" y="0px"
	 viewBox="0 0 428 73.2" style="enable-background:new 0 0 428 73.2;" xml:space="preserve">
<style type="text/css">
	.st0{fill:#A3A3A3;}
	.st1{fill:#13110C;}
	.st2{fill:#FFFFFF;}
</style>
<path d="M126.3,19.2c0.1-0.9,0.4-1.3,0.8-1.3s0.7,0.2,1.3,1.6L142,48.2l13.7-29.1c0.4-0.8,0.7-1.2,1.1-1.2c0.5,0,0.8,0.5,0.9,1.6
	l4.5,31.4c0.5,3.2,1,4.6,2.4,5.2c1.4,0.6,2.5,0.5,3.1,0.5c0.5,0,0.8,0,0.8,0.4s-0.6,0.5-1.3,0.5c-1.2,0-8.1-0.2-10.1-0.3
	c-1.2-0.1-1.5-0.2-1.5-0.6c0-0.3,0.2-0.4,0.6-0.6c0.3-0.1,0.4-0.8,0.2-2.2l-3-22.3h-0.2l-10.8,23.1c-1.2,2.4-1.4,2.8-1.8,2.8
	c-0.5,0-1-1-1.8-2.5c-1.2-2.3-5.1-10.1-5.7-11.5c-0.5-1.1-3.4-7.5-5.2-11.3h-0.2l-2.6,20.1c-0.1,1-0.1,1.7-0.1,2.5
	c0,1,0.6,1.4,1.5,1.6c0.9,0.2,1.6,0.3,2.1,0.3c0.4,0,0.8,0.1,0.8,0.4c0,0.4-0.5,0.6-1.2,0.6c-2.2-0.2-4.4-0.3-5.3-0.3
	c-1,0-3.4,0.2-5,0.2c-0.5-0.1-0.9-0.2-0.9-0.6c0-0.3,0.3-0.4,0.8-0.4c0.4,0,0.7,0,1.5-0.2c1.4-0.3,1.8-2.2,2.1-4L126.3,19.2z
	 M176.6,37.3c0-6.6,0-7.8-0.1-9.2c-0.1-1.5-0.5-1.9-1.9-2.3c-0.4-0.1-1.1-0.1-1.7-0.1c-0.5,0-0.8-0.1-0.8-0.4c0-0.3,0.4-0.4,1-0.4
	c2.3,0,5.1,0.1,6.4,0.1h12c0.8-0.1,1.5-0.2,1.8-0.3c0.2-0.1,0.5-0.2,0.7-0.2c0.3,0,0.3,0.2,0.3,0.4c0,0.3-0.2,0.8-0.3,2.8
	c0,0.5-0.2,2.3-0.2,2.8c0,0.2-0.1,0.7-0.5,0.7c-0.3,0-0.4-0.2-0.4-0.6c0-0.3-0.1-1.1-0.3-1.6c-0.4-0.8-0.7-1.4-2.9-1.6
	c-0.8-0.1-6-0.2-6.9-0.2c-0.2,0-0.3,0.2-0.3,0.4v10.7c0,0.3,0.1,0.4,0.3,0.4c1,0,6.7,0,7.7-0.1c1-0.1,1.7-0.2,2.1-0.7
	c0.3-0.3,0.5-0.6,0.7-0.6s0.3,0.2,0.3,0.4c0,0.3-0.1,1-0.3,3.1c-0.1,1-0.2,1.9-0.2,2.9c0,0.4,0,1-0.4,1c-0.3,0-0.4-0.1-0.4-0.4
	c-0.1-0.5-0.1-1-0.2-1.6c-0.2-0.9-0.8-1.5-2.4-1.7c-0.8-0.1-5.8-0.2-6.9-0.2c-0.2,0-0.2,0.2-0.2,0.5v3.4c0,1.5-0.1,5.2,0,6.4
	c0.1,2.9,1.4,3.6,5.9,3.6c1.1,0,3-0.1,4.1-0.6s1.6-1.4,1.9-3.2c0.1-0.4,0.2-0.7,0.5-0.7c0.4,0,0.4,0.6,0.4,1c0,1-0.4,3.9-0.6,4.7
	c-0.3,1.1-0.7,1.1-2.3,1.1c-3.3,0-5.9-0.1-8.1-0.2c-2.3,0.4-3.9,0.4-5.2,0.4h-2.5c-1,0.1-2,0.1-3.1,0.1c-0.5,0-0.8-0.1-0.8-0.4
	c0-0.2,0.1-0.4,0.7-0.4s1.2-0.1,1.6-0.2c0.9-0.2,1.2-1,1.3-2.3c0.2-1.8,0.2-5.3,0.2-9.2L176.6,37.3L176.6,37.3z M205.3,37.3v-9.2
	c-0.1-1.5-0.5-1.9-1.9-2.3c-0.4-0.1-1.1-0.1-1.7-0.1c-0.5,0-0.8-0.1-0.8-0.4c0-0.3,0.4-0.4,1-0.4c2.3,0,5.1,0.1,6.3,0.1
	c1.4,0,4.5-0.1,7.1-0.1c5.5,0,12.9,0,17.7,4.9c2.2,2.2,4.1,5.9,4.1,11c0,5.5-2.3,9.6-4.8,12c-2,2-6.6,5.1-14.7,5.1
	c-1.6,0-3.5-0.2-5.2-0.3c-1.7-0.2-3.3-0.3-4.4-0.3h-2.5c-1,0.1-2,0.1-3,0.1c-0.5,0-0.9-0.1-0.9-0.4c0-0.2,0.2-0.4,0.7-0.4
	c0.7,0,1.2-0.1,1.5-0.2c0.9-0.2,1.1-1,1.3-2.3c0.2-1.8,0.2-5.3,0.2-9.2C205.3,44.9,205.3,37.3,205.3,37.3z M211.2,42
	c0,4.5,0.1,7.9,0.1,8.7c0.1,1.1,0.2,2.6,0.5,3c0.5,0.8,2.3,1.7,5.7,1.7c4,0,6.9-0.7,9.6-2.9c2.9-2.4,3.7-6.3,3.7-10.7
	c0-5.5-2.1-9-4.1-10.8c-3.9-3.5-8.7-4-12.2-4c-0.9,0-2.4,0.1-2.7,0.3c-0.4,0.2-0.6,0.4-0.6,0.9c-0.1,1.5-0.1,5.1-0.1,8.4
	C211.1,36.6,211.2,42,211.2,42z M247.3,37.3v-9.2c-0.1-1.5-0.6-2-1.5-2.3c-0.5-0.1-1-0.2-1.6-0.2c-0.4,0-0.7-0.1-0.7-0.5
	c0-0.2,0.4-0.4,1.1-0.4c1.6,0,4.6,0.1,5.9,0.1c1.1,0,3.9-0.1,5.6-0.1c0.6,0,0.9,0.1,0.9,0.4c0,0.4-0.3,0.5-0.7,0.5
	c-0.4,0-0.8,0-1.3,0.1c-1.2,0.2-1.5,0.8-1.7,2.3c-0.1,1.4-0.1,2.6-0.1,9.2v7.6c0,4.1,0,7.7,0.2,9.5c0.2,1.2,0.5,1.8,1.7,2
	c0.6,0.1,1.6,0.2,2.3,0.2c0.5,0,0.7,0.3,0.7,0.4c0,0.3-0.4,0.5-0.9,0.5c-2.9,0-5.9-0.2-7.1-0.2c-1,0-4,0.2-5.7,0.2
	c-0.6,0-0.9-0.2-0.9-0.5c0-0.2,0.1-0.4,0.7-0.4c0.7,0,1.1-0.1,1.5-0.2c0.9-0.2,1.2-0.8,1.3-2.1c0.2-1.8,0.2-5.3,0.2-9.4L247.3,37.3
	L247.3,37.3z M270.6,46.6c-0.2,0-0.3,0-0.4,0.3l-2.4,5.8c-0.4,1.1-0.6,2.1-0.6,2.6c0,0.8,0.4,1.2,1.8,1.2h0.6c0.6,0,0.7,0.2,0.7,0.4
	c0,0.4-0.3,0.5-0.7,0.5c-1.4,0-3.5-0.2-4.9-0.2c-0.5,0-2.8,0.2-5.1,0.2c-0.5,0-0.8-0.1-0.8-0.5c0-0.2,0.2-0.4,0.5-0.4
	c0.4,0,0.9-0.1,1.3-0.1c2-0.3,2.7-1.6,3.6-3.8l11.5-27.2c0.5-1.2,0.9-1.7,1.3-1.7c0.7,0,0.9,0.4,1.3,1.4c1.1,2.4,8.4,20.1,11.2,26.7
	c1.7,3.9,2.9,4.4,3.7,4.6c0.7,0.1,1.1,0.1,1.6,0.1c0.4,0,0.6,0.1,0.6,0.4c0,0.4-0.2,0.5-1.9,0.5c-1.6,0-4.8,0-8.5-0.1
	c-0.8,0-1.3,0-1.3-0.4c0-0.2,0.1-0.4,0.6-0.4c0.3-0.1,0.6-0.4,0.4-1l-3.4-8.7c-0.1-0.3-0.2-0.3-0.4-0.3L270.6,46.6L270.6,46.6z
	 M280,44.2c0.2,0,0.3-0.1,0.2-0.3L276,33c-0.1-0.1-0.1-0.4-0.2-0.4c-0.1,0-0.2,0.2-0.2,0.4l-4.2,10.9c-0.1,0.2,0,0.3,0.2,0.3
	L280,44.2L280,44.2z M301.2,37.3v-9.2c-0.1-1.5-0.5-1.9-1.9-2.3c-0.4-0.1-1.1-0.1-1.8-0.1c-0.5,0-0.8-0.1-0.8-0.4
	c0-0.3,0.3-0.4,1-0.4c2.3,0,5.1,0.1,6.3,0.1c1.8,0,5.3-0.1,7.3-0.1c5.5,0,7.5,1.8,8.2,2.4c0.9,0.9,2.2,2.8,2.2,5.2
	c0,6.1-4.8,10.5-11.1,10.5h-1.3c-0.3,0-0.6-0.2-0.6-0.5c0-0.4,0.5-0.6,1.5-0.6c2.4,0,5.9-2.6,5.9-7c0-1.4-0.1-4.2-2.6-6.4
	c-1.6-1.4-3.4-1.6-4.4-1.6c-0.6,0-1.5,0.1-1.9,0.2c-0.2,0.1-0.4,0.3-0.4,0.8v17.2c0,3.9,0,7.4,0.2,9.3c0.2,1.2,0.4,2,1.7,2.2
	c0.6,0.1,1.6,0.2,2.2,0.2c0.5,0,0.7,0.2,0.7,0.4c0,0.3-0.4,0.4-0.8,0.4c-2.9,0-6.1-0.1-7.2-0.1c-1,0-3.8,0.1-5.6,0.1
	c-0.5,0-0.8-0.1-0.8-0.4c0-0.2,0.1-0.4,0.7-0.4c0.7,0,1.2-0.1,1.6-0.2c0.9-0.2,1.1-1,1.3-2.3c0.2-1.8,0.2-5.3,0.2-9.2L301.2,37.3
	L301.2,37.3z M331.4,46.6c-0.2,0-0.3,0-0.4,0.3l-2.3,5.8c-0.5,1.1-0.7,2.1-0.7,2.6c0,0.8,0.4,1.2,1.8,1.2h0.6c0.6,0,0.7,0.2,0.7,0.4
	c0,0.4-0.3,0.5-0.7,0.5c-1.5,0-3.5-0.2-4.9-0.2c-0.4,0-2.8,0.2-5.1,0.2c-0.6,0-0.8-0.1-0.8-0.5c0-0.2,0.1-0.4,0.5-0.4
	s0.9-0.1,1.3-0.1c2-0.3,2.7-1.6,3.7-3.8l11.5-27.2c0.5-1.2,0.8-1.7,1.3-1.7c0.7,0,0.8,0.4,1.3,1.4c1.1,2.4,8.4,20.1,11.2,26.7
	c1.7,3.9,2.9,4.4,3.8,4.6c0.6,0.1,1.1,0.1,1.6,0.1c0.4,0,0.6,0.1,0.6,0.4c0,0.4-0.2,0.5-1.9,0.5c-1.6,0-4.7,0-8.5-0.1
	c-0.8,0-1.3,0-1.3-0.4c0-0.2,0.1-0.4,0.6-0.4c0.3-0.1,0.6-0.4,0.4-1l-3.4-8.7c-0.1-0.3-0.2-0.3-0.4-0.3L331.4,46.6L331.4,46.6z
	 M340.8,44.2c0.2,0,0.3-0.1,0.2-0.3l-4.1-11c0-0.1-0.1-0.4-0.2-0.4s-0.2,0.2-0.2,0.4l-4.2,10.9c-0.1,0.2,0,0.3,0.1,0.3L340.8,44.2
	L340.8,44.2z M362.1,37.3v-9.2c-0.1-1.5-0.5-1.9-1.9-2.3c-0.4-0.1-1.1-0.1-1.8-0.1c-0.4,0-0.8-0.1-0.8-0.4c0-0.3,0.4-0.4,1-0.4
	c2.3,0,5.1,0.1,6,0.1c1.5,0,5.5-0.1,6.8-0.1c2.8,0,6,0.3,8.3,1.8c1.3,0.9,3.1,3,3.1,6c0,3.2-1.8,6.1-6.1,9.6c3.9,4.8,7,8.8,9.7,11.5
	c2.4,2.5,4,2.7,4.7,2.8c0.5,0.1,0.7,0.1,1,0.1c0.4,0,0.6,0.2,0.6,0.4c0,0.4-0.3,0.5-0.8,0.5h-4.2c-2.4,0-3.6-0.3-4.8-0.9
	c-1.9-1-3.5-3-6-6.4c-1.8-2.3-3.6-5.3-4.2-5.9c-0.2-0.3-0.5-0.3-0.8-0.3l-4-0.1c-0.2,0-0.4,0.1-0.4,0.4V45c0,4,0.1,7.4,0.3,9.2
	c0.2,1.2,0.4,2.1,1.7,2.3c0.6,0.1,1.6,0.1,2.2,0.1c0.3,0,0.6,0.3,0.6,0.4c0,0.3-0.4,0.5-0.9,0.5c-2.6,0-6.2-0.1-6.8-0.1
	c-0.9,0-3.6,0.1-5.4,0.1c-0.5,0-0.8-0.1-0.8-0.5c0-0.2,0.1-0.4,0.7-0.4s1.1-0.1,1.5-0.1c0.9-0.2,1.2-1,1.3-2.3
	c0.2-1.8,0.2-5.3,0.2-9.2L362.1,37.3L362.1,37.3z M367.7,40.6c0,0.5,0.1,0.6,0.4,0.8c0.9,0.3,2.2,0.4,3.4,0.4c1.8,0,2.3-0.1,3.1-0.7
	c1.3-1,2.8-2.8,2.8-6.4c0-6.1-4.1-7.7-6.7-7.7c-1.1,0-2.2,0-2.6,0.1c-0.3,0.1-0.4,0.3-0.4,0.6L367.7,40.6L367.7,40.6z M401.3,27.4
	l-6.5,0.2c-2.5,0-3.6,0.3-4.2,1.3c-0.3,0.4-0.6,0.9-0.8,1.5c-0.1,0.3-0.2,0.5-0.5,0.5s-0.4-0.3-0.4-0.7c0-0.7,0.9-4.8,1-5.3
	c0.1-0.6,0.2-0.8,0.5-0.8c0.4,0,0.8,0.3,1.9,0.5c1.3,0.1,2.9,0.2,4.4,0.2h17.8c1.4,0,2.3-0.1,3-0.2c0.7-0.1,1-0.2,1.2-0.2
	c0.3,0,0.3,0.2,0.3,0.9c0,0.9-0.1,4.1-0.1,5.3c0,0.5-0.1,0.7-0.4,0.7c-0.4,0-0.4-0.2-0.5-0.9V30c-0.1-1.1-1.2-2.4-5.2-2.5l-5.5-0.1
	v17.5c0,3.9,0,7.4,0.2,9.3c0.2,1.2,0.4,2,1.7,2.2c0.6,0.1,1.6,0.1,2.2,0.1c0.5,0,0.7,0.3,0.7,0.5c0,0.3-0.4,0.4-0.8,0.4
	c-2.9,0-5.8-0.2-7.1-0.2c-1,0-4,0.2-5.7,0.2c-0.6,0-0.9-0.2-0.9-0.4s0.1-0.5,0.7-0.5c0.7,0,1.2,0,1.5-0.1c0.9-0.2,1.1-1,1.3-2.3
	c0.2-1.8,0.2-5.3,0.2-9.2L401.3,27.4L401.3,27.4z"/>
<g>
	<path class="st0" d="M42.9,39.8l-5.8-8.4l-1.9,10.1v0l-7.5-7l0.1,10.3l-8.7-5.2l2.2,10l-9.6-3.3l4.2,9.3l-10-1.2l6,8.2L1.9,63.4
		l7.6,6.8l-9.7,2.9h94l-9.6-2.9l7.6-6.6l-10.1-1l6-8.3l-10,1.2l0,0l4.1-9.4l-9.6,3.4l2.3-10.1l-8.7,5.3l0.6-10.5l-8.1,6.1l-1.7-8.9
		l-5.8,8.4l-4-9.4L42.9,39.8z"/>
	<path class="st1" d="M79.4,1.4l-10-0.8l2.1,13.8c-4.2,2.7-9.4,5.5-14.5,8.1c-0.1,0-0.2,0.1-0.2,0.1c0-0.1,0-0.3,0-0.4
		c0-0.5-0.2-0.9-0.5-1.4c-0.1-0.2-0.3-0.5-0.5-0.7c-0.2-0.2-0.4-0.4-0.9-0.5c0,0-0.1,0-0.1,0c0.5-1.2,0.8-2.5,0.8-3.9
		c0-2-0.6-3.9-1.5-5.4c2.5-1.8,3.7-4,3.2-5.1c-1.4-0.4-2.7-0.6-4.1-0.8C52.1,4,50,1,46.1,1c-4.8,0.1-11.4,3.7-14.1,8
		c-0.9,1.5-1.4,3.2-1.4,5c0,0.9,0.1,1.5,0.5,2.2c0.7,1.6,1.9,2.7,4.2,2.7h0.2c0.1,0,0.2,0.2,0.3,0.2c0.6,1.8,1.7,3.5,3.2,4.7
		l-0.1,0.3c-0.2,0.5-0.7,0.7-0.8,1.7c0,0.4,0.2,0.8,0.5,1.1c0.1,0.1,0.5,1,0.8,1.9c0,0,0,0.1,0.1,0.1c-1.7,0.8-3.6,1.2-5.4,1.2
		c-2.3,0-4.3-0.6-5.5-1.6c-0.6-0.5-1.3-0.7-2-0.7c-1.1,0-2,0.5-2.7,0.9c-0.9,0.6-1.9,1.2-2.7,1.8c-0.7,0.6-1.5,1-1.5,2.1
		c0,0.1,0,0.2,0,0.3c0.4,1.2,1.6,2.2,3.3,3.2c1.7,0.9,3.7,1.8,5.7,1.8h0.1c1.6,0,3.1-0.3,4.4-0.5c-1.5,2-2.9,4.4-4.1,7.3
		c-0.5-0.2-1-0.4-1.6-0.6c-1.4-0.6-2.9-1.1-4-1.5c-0.6-0.2-1.1-0.6-1.5-0.7c-0.4-0.1-0.6-0.5-1-0.5h-0.4l-0.2,0.6
		c-0.4,0.6-0.7,1.6-1,2.5L16.1,44l-0.2,0.7c-0.8,2.2-1.1,4.9-1.1,7.7c0,6.1,1.4,12.8,2.9,16.2l0.1,0.1l0.1,0.1
		c0.3,0.3,0.4,0.2,0.6,0.3c1.2,0.3,4.9,0.4,8.4,0.5c2.7,0.1,5.3,0.1,6.3,0.1c1.6,1.8,3.2,3.1,4.7,3.4c0,0,0-0.1,0-0.1h22.4
		c0.9-6.8,2.2-20.5,2.2-34.9c0-2-0.2-3.5-0.6-4.8c-0.6-3.2,5.5-7.1,10.9-10.7l0.1,0.5l-1.5,18.9l13.9-0.9l12.4,1L99,22.5l-1.4-22
		l-9.7,1L79.4,1.4z M57.1,6.2C57.1,6.2,57.1,6.2,57.1,6.2L57.1,6.2L57.1,6.2z"/>
	<path class="st2" d="M36.7,64.8c-2.1-5.7-1.9-7-1.9-8.2c0-2.2,1.3-4.9,3.6-7.9l11.2-1c-0.5,2.9-1.8,11.6-1.8,16.8
		c0,1.1,0,2,0.2,2.7l-10.1,0.6c-0.4-1-0.7-1.8-1-2.6L36.7,64.8z M26.2,68.1c-1.7,0-3.5-0.1-5.2-0.2c-0.6,0-1.2-0.1-1.8-0.2
		c-0.1,0-0.3,0-0.3-0.1c-1.3-3.2-2.6-9.6-2.6-15.3c0-2.4,0.2-4.7,0.8-6.5l10.7,2.3c-0.6,1.8-1.1,3.6-1.5,5.5c-0.8,3.3-0.6,5.8,2,9.7
		l1,1.4c0.2,0.2,0.4,0.5,0.6,0.7c0.7,0.9,1.4,1.8,2.1,2.7C30,68.2,28.1,68.1,26.2,68.1 M96.3,40.5l-10.9-0.9l-12.3,0.8l1.3-17.3
		L71.3,2.4l10.1,0.8l6.8-0.1l8.1-0.8l1.3,20.3L96.3,40.5z M54.5,17.1c0,0.5-0.6,1.3-1.7,1.5c-0.4,0.1-0.7,0.1-1.1,0.1
		c-1.1,0-1.7-0.3-1.7-1.1c0-1.9,1.2-3.2,2.4-3.2c0.1,0,0.2,0,0.3,0C53.7,14.7,54.5,15.8,54.5,17.1 M28.7,36.4L28.7,36.4
		c-1.6,0-3.5-0.7-5-1.5c-1.4-0.7-2.4-1.8-2.5-2.1c0.1-0.4,1.9-1.5,3.5-2.6c0.6-0.4,1.3-0.7,1.9-0.7c0.4,0,0.8,0.1,1.1,0.4
		c1.6,1.2,3.9,1.9,6.4,1.9c2.1,0,4.2-0.5,6.1-1.3c0,0.1,0.1,0.1,0.1,0.2c0.1,0.1,0.1,0.1,0.2,0.2c-2.1,1.3-4,2.9-5.7,4.7
		C33.1,36,31.1,36.4,28.7,36.4C28.7,36.4,28.7,36.4,28.7,36.4 M35.5,18c-2-0.1-2.2-0.6-3-2.1c-0.2-0.4-0.3-1.1-0.3-1.8
		c0-1.3,0.4-2.9,1.2-4.2c2.1-3.7,8.7-7.4,12.8-7.3c3.3,0,4.8,2.5,6.6,3.5l0.1,0.1c-3.4,1.2-6.2,3.5-8.7,5.7
		C40.6,15.1,37.7,18.1,35.5,18 M54.7,23.2c-0.7,0.7-2.2,1.8-5,3.5c-0.3,0.1-0.5,0.3-0.8,0.4c-1.8,0.6-3.7,1.3-5.5,2.1
		c-1.1,0.2-1.8,0.3-2.2,0.3c-0.1-0.3-0.4-0.9-0.6-1.5c-0.3-0.8-0.6-1.5-1.1-2.1c0,0,0,0,0,0c0.1-0.1,0.2-0.3,0.4-0.6
		c1.5-0.2,7.1-1.2,14.9-3.8c0.1,0.1,0.2,0.3,0.3,0.5c0.1,0.1,0.1,0.2,0.1,0.3c0,0,0,0.1,0,0.1C55.3,22.4,55.3,22.5,54.7,23.2"/>
	<path class="st2" d="M51.5,63.1c-0.3,1.3-0.6,2.5-1.1,3.2c-0.3,0.5-0.6,0.8-0.9,0.9c-0.1-0.6-0.2-1.5-0.2-2.6
		c0-6.1,1.9-17.5,1.9-17.5l0.2-1l-11.7,1c0.1-0.1,0.2-0.2,0.3-0.3l11.8-2c0.1,1.5,0.3,5,0.3,8.7C52.3,56.8,52.1,60.4,51.5,63.1
		 M21.4,43.6c1,0.3,3.5,1.3,5.8,2.2c0.4,0.2,0.9,0.3,1.3,0.5c-0.1,0.1-0.1,0.3-0.2,0.4l-7.5-1.6C21,44.6,21.1,44.1,21.4,43.6"/>
	<path class="st1" d="M76.6,32.4h7.7v0.8h-7.7V32.4z M75.9,12.9h7.7v0.8h-7.7V12.9z M86.6,16.2h7.7V17h-7.7V16.2z M86,9.7h7.7v0.8
		H86V9.7z M86.4,32.4h7.7v0.8h-7.7V32.4z M86.3,13H94v0.8h-7.7V13z M86.2,35.7h7.7v0.8h-7.7V35.7z M86.6,29.2h7.7V30h-7.7V29.2z
		 M87.1,22.7h7.7v0.8h-7.7V22.7z M86.9,25.9h7.7v0.8h-7.7V25.9z M74.8,6.5h7.7v0.8h-7.7V6.5z M86.9,19.4h7.7v0.8h-7.7L86.9,19.4z
		 M77,19.4h7.7v0.8H77V19.4z M75.4,9.7h7.7v0.8h-7.7V9.7z M76.5,16.2h7.7v0.8h-7.7V16.2z M76.3,35.7H84v0.8h-7.7V35.7z M77.4,22.6
		h7.7v0.8h-7.7V22.6z M77.1,25.9h7.7v0.8h-7.7V25.9z M76.9,29.1h7.7v0.8h-7.7V29.1z M45.7,56.5L45,56.4l0.4-5.4l0.8,0.1L45.7,56.5z
		 M42.8,56.6l-0.8-0.1l0.4-5.5l0.8,0.1L42.8,56.6z M39.9,56.8l-0.8-0.1l0.4-5.5l0.8,0.1L39.9,56.8z M37,56.9l-0.8-0.1l0.5-5.5
		l0.8,0.1L37,56.9z M25.2,50.5l0.8,0.1l-0.6,5.8l-0.8-0.1L25.2,50.5z M22.3,50.2l0.8,0.1L22.5,56L21.8,56L22.3,50.2z M19.5,49.8
		l0.8,0.1l-0.6,5.9l-0.8-0.1L19.5,49.8z M44.6,59.5l0.5,5.5l0.8-0.1l-0.5-5.5L44.6,59.5z M41.8,59.6l0.5,5.6l0.8-0.1l-0.5-5.6
		L41.8,59.6z M39.5,65.2l-0.6-5.6l0.8-0.1l0.6,5.6L39.5,65.2z M25.7,64.8L24.8,59l0.8-0.1l0.9,5.8L25.7,64.8z M22,58.6l0.9,5.8
		l0.8-0.1l-0.9-5.8L22,58.6z M20.2,64.1l-1-5.9l0.8-0.1l1,5.9L20.2,64.1z M36.7,64.8l0.2,0.5l0.6-0.1l-0.7-5.6l-0.8,0.1L36.7,64.8z
		 M85.7,6.5h7.7v0.8h-7.7V6.5z"/>
	<path class="st1" d="M87.9,1.5C87.5,0.4,86.1,0,83.9,0c-2.1,0-3.8,0.6-4.4,1.4l1.9,1.7c1.5,1.1,3.1,2.7,4.3,3.5l2.1-0.2
		c0.3-0.6,0.3-1.8,0.3-3.4C88.1,3.1,87.9,1.5,87.9,1.5z M28.2,63.3l0.3,1.8l0.8-0.1l0-0.3L28.2,63.3z"/>
</g>
</svg>
